<svg width="512" height="512" viewBox="0 0 512 512" xmlns="http://www.w3.org/2000/svg">
  <defs>
    <linearGradient id="bg" x1="0" y1="0" x2="1" y2="1">
      <stop offset="0" stop-color="#17CE97"/>
      <stop offset="1" stop-color="#0CA678"/>
    </linearGradient>
  </defs>
  <rect width="512" height="512" rx="112" fill="url(#bg)"/>
  <!-- steam -->
  <g stroke="#FFFFFF" stroke-width="13" stroke-linecap="round" opacity="0.9" fill="none">
    <path d="M214 150 q-20 -26 0 -52 q20 -26 0 -52"/>
    <path d="M256 150 q-20 -26 0 -52 q20 -26 0 -52"/>
    <path d="M298 150 q-20 -26 0 -52 q20 -26 0 -52"/>
  </g>
  <!-- bowl -->
  <path d="M120 214 h272 a16 16 0 0 1 16 16 v6 c0 84 -68 152 -152 152 s-152 -68 -152 -152 v-6 a16 16 0 0 1 16 -16 z" fill="#FFFFFF"/>
  <!-- rice mound -->
  <path d="M176 236 a80 44 0 0 1 160 0 z" fill="#E6FCF5"/>
  <!-- bowl base -->
  <rect x="196" y="404" width="120" height="20" rx="10" fill="#FFFFFF" opacity="0.9"/>
</svg>
